<svg width="20" height="21" viewBox="0 0 20 21" fill="none" xmlns="http://www.w3.org/2000/svg">
<path fill-rule="evenodd" clip-rule="evenodd" d="M15.4001 1.24493C15.6778 1.24493 15.9166 1.44145 15.9701 1.71391C16.2425 3.10187 17.3327 4.19984 18.6691 4.46846C18.9403 4.52299 19.1354 4.76125 19.1354 5.03791C19.1354 5.31457 18.9403 5.55283 18.6691 5.60735C17.3323 5.87607 16.2421 6.97255 15.9698 8.36007C15.9163 8.63254 15.6775 8.82902 15.3998 8.82902C15.1222 8.82902 14.8833 8.63254 14.8298 8.36007C14.5575 6.97249 13.4676 5.87606 12.1309 5.60735C11.8597 5.55283 11.6646 5.31457 11.6646 5.03791C11.6646 4.76125 11.8597 4.52299 12.1309 4.46846C13.4673 4.19983 14.5578 3.1018 14.8301 1.71391C14.8836 1.44145 15.1225 1.24493 15.4001 1.24493ZM10.3093 5.03791C10.3093 4.88244 10.3277 4.7393 10.3628 4.59342C8.27122 4.59342 6.17962 4.59342 4.08801 4.59342C2.37716 4.59342 0.990234 5.98035 0.990234 7.6912V16.2101C0.990234 17.9209 2.37653 19.3079 4.08739 19.3079C6.55442 19.3079 9.99788 19.3079 12.5034 19.3079C14.2142 19.3079 15.5981 17.9209 15.5981 16.2101V10.1742C15.5328 10.1809 15.4666 10.1843 15.3998 10.1843C14.4743 10.1843 13.6782 9.52927 13.4999 8.62108C13.3308 7.75935 12.6506 7.09422 11.8638 6.93605C10.9597 6.75429 10.3093 5.9601 10.3093 5.03791ZM12.439 13.696L14.1558 15.64V16.2101C14.1558 17.0655 13.4623 17.759 12.6069 17.759H4.08801C3.23259 17.759 2.53913 17.0655 2.53913 16.2101V13.2846L4.36733 10.8543C4.37153 10.8487 4.37587 10.8432 4.38035 10.8379C4.47169 10.7292 4.57318 10.6305 4.6845 10.5418C4.68825 10.5388 4.69205 10.5359 4.69591 10.533C5.41431 10.0032 6.43149 10.152 6.97406 10.8492L6.97521 10.8507L9.44844 14.0609L9.99171 13.5321L9.99768 13.5263C10.0343 13.4905 10.0957 13.4306 10.1732 13.3786C10.8894 12.8574 11.8976 13.0058 12.439 13.696Z" fill="#FE662D"/>
<path d="M10.8545 4.20587L10.7393 4.68439C10.7109 4.80242 10.6963 4.91503 10.6963 5.0379C10.6963 5.77567 11.2172 6.41106 11.9404 6.55646C12.8837 6.74623 13.6812 7.53436 13.8799 8.54669C14.0226 9.27303 14.6592 9.7965 15.3994 9.79669C15.453 9.79669 15.5063 9.7942 15.5586 9.78888L15.9854 9.74591V16.2098C15.9854 18.134 14.4281 19.6951 12.5029 19.6951H4.08691C2.16232 19.6949 0.602539 18.1342 0.602539 16.2098V7.69122C0.602539 5.76655 2.16323 4.20594 4.08789 4.20587H10.8545ZM6.66895 11.0867C6.25434 10.5539 5.47428 10.4402 4.92676 10.8426L4.92578 10.8445C4.8345 10.9173 4.7514 10.998 4.67676 11.0867L2.92676 13.4129V16.2098C2.92676 16.8513 3.44638 17.3718 4.08789 17.3719H12.6064C13.248 17.3719 13.7686 16.8513 13.7686 16.2098V15.7859L12.1484 13.952L12.1416 13.9442L12.1348 13.9354C11.7207 13.4075 10.9473 13.2943 10.4014 13.6912L10.3955 13.6961L10.3887 13.7C10.3435 13.7304 10.3047 13.7682 10.2686 13.8035H10.2676L10.2617 13.8094L9.71875 14.3387L9.40723 14.6414L9.1416 14.2977L6.66895 11.0887V11.0867ZM15.4004 0.857239C15.863 0.857366 16.2604 1.18551 16.3496 1.63947C16.5925 2.87723 17.5662 3.85158 18.7451 4.08868C19.1971 4.17956 19.5225 4.57679 19.5225 5.0379C19.5225 5.49902 19.1971 5.89625 18.7451 5.98712C17.5655 6.22437 16.5924 7.19744 16.3496 8.43439C16.2604 8.88846 15.8621 9.21661 15.3994 9.21661C14.9369 9.21643 14.5394 8.88833 14.4502 8.43439C14.2074 7.19728 13.2343 6.22431 12.0547 5.98712C11.6026 5.89624 11.2773 5.49895 11.2773 5.0379C11.2773 4.57686 11.6026 4.17958 12.0547 4.08868C13.2338 3.8516 14.2073 2.87713 14.4502 1.63947C14.5394 1.18542 14.9376 0.857239 15.4004 0.857239Z" stroke="white" stroke-opacity="0.1" stroke-width="0.774444"/>
</svg>
