<svg width="16" height="14" viewBox="0 0 16 14" fill="none" xmlns="http://www.w3.org/2000/svg">
<path d="M14.2091 5.58618C14.3697 5.12642 14.4266 4.63977 14.376 4.15781C14.3237 3.67587 14.1626 3.21028 13.9035 2.79277C13.5205 2.16171 12.937 1.66174 12.2363 1.36441C11.5357 1.06647 10.753 0.988814 10.0026 1.14278C9.66344 0.780439 9.24662 0.49104 8.78001 0.293966C8.3134 0.0968925 7.80779 -0.00330608 7.29704 8.31995e-05C6.52889 -0.0020539 5.77984 0.227131 5.15775 0.654637C4.53566 1.08214 4.07262 1.68591 3.8353 2.37901C3.33564 2.47669 2.86371 2.67442 2.45106 2.95899C2.03768 3.24467 1.69181 3.60733 1.43999 4.02973C1.05449 4.66002 0.890819 5.3905 0.972766 6.11507C1.05294 6.84042 1.37408 7.52281 1.88978 8.06369C1.72921 8.52344 1.67236 9.0101 1.72291 9.49205C1.77676 9.97417 1.93908 10.439 2.19545 10.8564C2.57845 11.4874 3.16199 11.9874 3.86261 12.2847C4.56324 12.5827 5.34591 12.6603 6.09635 12.5064C6.43548 12.8687 6.85231 13.1581 7.31891 13.3552C7.78552 13.5523 8.29114 13.6525 8.80188 13.6491C9.57047 13.6514 10.3199 13.4215 10.9416 12.9928C11.5636 12.5642 12.0264 11.9596 12.2636 11.2658C12.7633 11.1681 13.2352 10.9704 13.6479 10.6858C14.0612 10.4002 14.4026 10.0382 14.6589 9.61582C15.0458 8.98475 15.2073 8.25582 15.1262 7.53048C15.0468 6.8062 14.7255 6.12496 14.2091 5.58618ZM8.83374 12.7539C8.11924 12.7539 7.56175 12.5452 7.08087 12.1617C7.10363 12.1487 7.13928 12.1315 7.16658 12.1142L10.0291 10.5455C10.101 10.5074 10.1603 10.4511 10.2005 10.3829C10.2409 10.3153 10.2623 10.239 10.2627 10.1613V6.33238L11.4725 6.99727C11.4725 6.99727 11.4854 7.00591 11.49 7.01022C11.49 7.01454 11.4945 7.02318 11.4991 7.02749V10.2001C11.4991 11.6371 10.2362 12.7582 8.83374 12.7582V12.7539ZM3.01386 10.4088C2.69747 9.89113 2.58461 9.28387 2.69529 8.69476C2.71729 8.70771 2.75294 8.72858 2.78024 8.74153L5.64354 10.3102C5.71469 10.349 5.79512 10.3698 5.87715 10.3707C5.95831 10.3707 6.03871 10.3491 6.11077 10.3109L9.6074 8.39613V9.74391C9.6074 9.7475 9.59829 9.75614 9.5945 9.76046L6.69935 11.3471C6.07991 11.6848 5.34493 11.7766 4.65447 11.6026C4.31272 11.5161 3.9923 11.3665 3.71157 11.1624C3.43083 10.9583 3.19528 10.7037 3.01841 10.4131L3.01386 10.4088ZM2.2584 4.47731C2.57269 3.95874 3.06951 3.56181 3.66161 3.3562V6.58711C3.66161 6.66411 3.6836 6.7411 3.7238 6.80946C3.76476 6.8771 3.82241 6.93251 3.89522 6.97137L7.39185 8.88545L6.18282 9.55106C6.18282 9.55106 6.16917 9.55538 6.16462 9.55969H6.14186L3.24747 7.97302C2.62941 7.63371 2.17829 7.07584 1.99293 6.42161C1.80827 5.76704 1.90368 5.06976 2.2584 4.48162V4.47731ZM12.2045 6.67346L8.70783 4.75938L9.91686 4.09737C9.91686 4.09737 9.93051 4.09377 9.93506 4.08945H9.95782L12.8522 5.67541C13.2954 5.91839 13.6567 6.27592 13.8939 6.70631C14.1311 7.13669 14.2343 7.62218 14.1917 8.10614C14.1475 8.5897 13.9589 9.05126 13.6479 9.43665C13.3369 9.82522 12.9197 10.1188 12.4388 10.2857V7.05268C12.4382 6.97491 12.4165 6.8986 12.3759 6.83105C12.3356 6.76311 12.2763 6.70707 12.2045 6.66914V6.67346ZM13.4097 4.95079C13.4097 4.95079 13.3513 4.91625 13.324 4.90402L10.4607 3.33461C10.3897 3.29564 10.3091 3.27512 10.2271 3.27512C10.1451 3.27512 10.0645 3.29564 9.99347 3.33461L6.49684 5.24869V3.90236C6.49684 3.89804 6.50518 3.88941 6.50973 3.88509L9.40488 2.29914C9.8474 2.05555 10.3541 1.93698 10.8652 1.95738C11.3764 1.97777 11.8708 2.13629 12.2902 2.41427C12.7091 2.69353 13.0362 3.07961 13.2335 3.52786C13.4308 3.97611 13.4903 4.4682 13.4051 4.94719L13.4097 4.95079ZM5.83543 7.31749L4.6264 6.65187C4.6264 6.65187 4.61351 6.64324 4.60896 6.63892C4.6077 6.63268 4.60454 6.62692 4.59986 6.62237V3.44903C4.59986 2.96331 4.74776 2.49055 5.02233 2.07679C5.29644 1.66582 5.68961 1.33854 6.15476 1.13414C6.61909 0.929347 7.13477 0.852547 7.64291 0.91251C8.1511 0.976552 8.63122 1.17228 9.0226 1.48386C8.99985 1.49681 8.9642 1.51408 8.93689 1.53063L6.07436 3.10003C6.00257 3.13796 5.94324 3.19399 5.90294 3.26194C5.86232 3.32949 5.84065 3.4058 5.83999 3.48357V7.31317L5.83543 7.31749ZM6.49153 5.97403L8.04643 5.12133L9.60133 5.97403V7.67943L8.04643 8.53285L6.49153 7.67943V5.97403Z" fill="white" fill-opacity="0.5"/>
</svg>
