<svg width="32" height="33" viewBox="0 0 32 33" fill="none" xmlns="http://www.w3.org/2000/svg">
<g clip-path="url(#clip0_2052_381)">
<path d="M15.9169 20.4386C18.1077 20.4386 19.8837 18.6626 19.8837 16.4719C19.8837 14.2811 18.1077 12.5051 15.9169 12.5051C13.7262 12.5051 11.9502 14.2811 11.9502 16.4719C11.9502 18.6626 13.7262 20.4386 15.9169 20.4386Z" stroke="white" stroke-width="2.26671" stroke-linecap="round" stroke-linejoin="round"/>
<path d="M25.7014 20.4385C25.5254 20.8373 25.4729 21.2797 25.5507 21.7086C25.6285 22.1375 25.8329 22.5333 26.1378 22.845L26.2171 22.9243C26.463 23.1699 26.658 23.4616 26.7911 23.7826C26.9242 24.1036 26.9927 24.4478 26.9927 24.7953C26.9927 25.1428 26.9242 25.4869 26.7911 25.808C26.658 26.129 26.463 26.4207 26.2171 26.6663C25.9715 26.9121 25.6798 27.1072 25.3588 27.2403C25.0378 27.3734 24.6937 27.4419 24.3461 27.4419C23.9986 27.4419 23.6545 27.3734 23.3334 27.2403C23.0124 27.1072 22.7207 26.9121 22.4751 26.6663L22.3958 26.5869C22.0842 26.2821 21.6884 26.0776 21.2595 25.9998C20.8305 25.9221 20.3881 25.9746 19.9893 26.1506C19.5982 26.3182 19.2647 26.5965 19.0298 26.9513C18.7948 27.306 18.6688 27.7217 18.6671 28.1472V28.372C18.6671 29.0733 18.3885 29.746 17.8925 30.2419C17.3966 30.7378 16.7239 31.0165 16.0226 31.0165C15.3212 31.0165 14.6486 30.7378 14.1526 30.2419C13.6567 29.746 13.3781 29.0733 13.3781 28.372V28.253C13.3678 27.8153 13.2262 27.3908 12.9715 27.0348C12.7168 26.6787 12.3609 26.4075 11.9501 26.2564C11.5512 26.0804 11.1088 26.0278 10.6799 26.1056C10.251 26.1834 9.85519 26.3879 9.54356 26.6927L9.46423 26.772C9.21863 27.0179 8.92697 27.213 8.60593 27.3461C8.28489 27.4791 7.94077 27.5476 7.59325 27.5476C7.24572 27.5476 6.9016 27.4791 6.58056 27.3461C6.25953 27.213 5.96787 27.0179 5.72227 26.772C5.47639 26.5264 5.28133 26.2348 5.14825 25.9137C5.01517 25.5927 4.94667 25.2486 4.94667 24.9011C4.94667 24.5535 5.01517 24.2094 5.14825 23.8884C5.28133 23.5673 5.47639 23.2757 5.72227 23.0301L5.8016 22.9507C6.10643 22.6391 6.31091 22.2433 6.38869 21.8144C6.46646 21.3855 6.41395 20.9431 6.23794 20.5443C6.07033 20.1532 5.79202 19.8196 5.43728 19.5847C5.08253 19.3498 4.66683 19.2237 4.24135 19.222H4.01657C3.3152 19.222 2.64256 18.9434 2.14663 18.4475C1.65069 17.9515 1.37207 17.2789 1.37207 16.5775C1.37207 15.8761 1.65069 15.2035 2.14663 14.7076C2.64256 14.2116 3.3152 13.933 4.01657 13.933H4.13557C4.57323 13.9228 4.99768 13.7811 5.35375 13.5264C5.70983 13.2718 5.98105 12.9159 6.13216 12.505C6.30817 12.1062 6.36068 11.6638 6.28291 11.2348C6.20513 10.8059 6.00065 10.4101 5.69582 10.0985L5.61649 10.0192C5.37061 9.77356 5.17556 9.4819 5.04247 9.16086C4.90939 8.83983 4.84089 8.49571 4.84089 8.14818C4.84089 7.80065 4.90939 7.45653 5.04247 7.13549C5.17556 6.81446 5.37061 6.5228 5.61649 6.2772C5.86209 6.03132 6.15375 5.83627 6.47478 5.70318C6.79582 5.5701 7.13994 5.5016 7.48747 5.5016C7.83499 5.5016 8.17911 5.5701 8.50015 5.70318C8.82119 5.83627 9.11285 6.03132 9.35845 6.2772L9.43778 6.35653C9.74941 6.66136 10.1452 6.86584 10.5741 6.94362C11.0031 7.02139 11.4455 6.96889 11.8443 6.79287H11.9501C12.3411 6.62526 12.6747 6.34695 12.9096 5.99221C13.1445 5.63746 13.2706 5.22176 13.2723 4.79628V4.5715C13.2723 3.87013 13.5509 3.1975 14.0469 2.70156C14.5428 2.20562 15.2154 1.927 15.9168 1.927C16.6182 1.927 17.2908 2.20562 17.7867 2.70156C18.2827 3.1975 18.5613 3.87013 18.5613 4.5715V4.6905C18.563 5.11598 18.6891 5.53168 18.924 5.88643C19.1589 6.24117 19.4925 6.51948 19.8835 6.68709C20.2824 6.86311 20.7247 6.91561 21.1537 6.83784C21.5826 6.76006 21.9784 6.55558 22.29 6.25075L22.3694 6.17142C22.615 5.92554 22.9066 5.73049 23.2277 5.5974C23.5487 5.46432 23.8928 5.39582 24.2403 5.39582C24.5879 5.39582 24.932 5.46432 25.253 5.5974C25.5741 5.73049 25.8657 5.92554 26.1113 6.17142C26.3572 6.41702 26.5523 6.70868 26.6853 7.02971C26.8184 7.35075 26.8869 7.69487 26.8869 8.0424C26.8869 8.38993 26.8184 8.73405 26.6853 9.05508C26.5523 9.37612 26.3572 9.66778 26.1113 9.91338L26.032 9.99271C25.7272 10.3043 25.5227 10.7001 25.4449 11.1291C25.3671 11.558 25.4196 12.0004 25.5957 12.3992V12.505C25.7633 12.8961 26.0416 13.2296 26.3963 13.4645C26.7511 13.6995 27.1668 13.8255 27.5922 13.8272H27.817C28.5184 13.8272 29.191 14.1059 29.687 14.6018C30.1829 15.0977 30.4615 15.7704 30.4615 16.4717C30.4615 17.1731 30.1829 17.8457 29.687 18.3417C29.191 18.8376 28.5184 19.1162 27.817 19.1162H27.698C27.2725 19.1179 26.8568 19.244 26.5021 19.4789C26.1474 19.7139 25.869 20.0474 25.7014 20.4385V20.4385Z" stroke="white" stroke-width="2.26671" stroke-linecap="round" stroke-linejoin="round"/>
</g>
<defs>
<clipPath id="clip0_2052_381">
<rect width="31.734" height="31.734" fill="white" transform="translate(0.0498047 0.604736)"/>
</clipPath>
</defs>
</svg>
