<svg width="27" height="28" viewBox="0 0 27 28" fill="none" xmlns="http://www.w3.org/2000/svg">
<path fill-rule="evenodd" clip-rule="evenodd" d="M19.66 2.14288C19.702 1.98249 19.796 1.84055 19.9273 1.73925C20.0586 1.63795 20.2197 1.58301 20.3855 1.58301C20.5513 1.58301 20.7124 1.63795 20.8437 1.73925C20.975 1.84055 21.069 1.98249 21.111 2.14288C21.441 3.40488 21.804 4.17988 22.346 4.75288C22.892 5.32988 23.69 5.77988 25.051 6.23688C25.2 6.28689 25.3295 6.38243 25.4212 6.51C25.513 6.63757 25.5623 6.79074 25.5623 6.94788C25.5623 7.10501 25.513 7.25818 25.4212 7.38575C25.3295 7.51333 25.2 7.60887 25.051 7.65888C23.691 8.11588 22.891 8.56588 22.346 9.14288C21.804 9.71688 21.442 10.4909 21.111 11.7529C21.0686 11.9128 20.9746 12.0543 20.8434 12.1552C20.7123 12.2561 20.5515 12.3108 20.386 12.3108C20.2205 12.3108 20.0597 12.2561 19.9286 12.1552C19.7974 12.0543 19.7034 11.9128 19.661 11.7529C19.33 10.4909 18.967 9.71688 18.425 9.14288C17.88 8.56588 17.081 8.11588 15.72 7.65888C15.571 7.60887 15.4415 7.51333 15.3498 7.38575C15.2581 7.25818 15.2087 7.10501 15.2087 6.94788C15.2087 6.79074 15.2581 6.63757 15.3498 6.51C15.4415 6.38243 15.571 6.28689 15.72 6.23688C17.081 5.77988 17.88 5.32988 18.425 4.75388C18.967 4.17988 19.33 3.40388 19.66 2.14388V2.14288ZM9.05201 7.32188C9.09404 7.16149 9.18804 7.01955 9.3193 6.91825C9.45057 6.81695 9.6117 6.76201 9.77751 6.76201C9.94332 6.76201 10.1044 6.81695 10.2357 6.91825C10.367 7.01955 10.461 7.16149 10.503 7.32188C11.098 9.60488 11.773 11.0959 12.833 12.2219C13.895 13.3509 15.417 14.1889 17.864 15.0139C18.013 15.0639 18.1425 15.1594 18.2342 15.287C18.326 15.4146 18.3753 15.5677 18.3753 15.7249C18.3753 15.882 18.326 16.0352 18.2342 16.1628C18.1425 16.2903 18.013 16.3859 17.864 16.4359C15.417 17.2599 13.895 18.0989 12.833 19.2279C11.773 20.3539 11.098 21.8449 10.503 24.1279C10.461 24.2883 10.367 24.4302 10.2357 24.5315C10.1044 24.6328 9.94332 24.6877 9.77751 24.6877C9.6117 24.6877 9.45057 24.6328 9.3193 24.5315C9.18804 24.4302 9.09404 24.2883 9.05201 24.1279C8.45601 21.8449 7.78201 20.3539 6.72201 19.2279C5.65901 18.0989 4.13801 17.2599 1.69001 16.4359C1.54104 16.3859 1.41155 16.2903 1.31981 16.1628C1.22807 16.0352 1.17871 15.882 1.17871 15.7249C1.17871 15.5677 1.22807 15.4146 1.31981 15.287C1.41155 15.1594 1.54104 15.0639 1.69001 15.0139C4.13801 14.1889 5.66001 13.3509 6.72201 12.2219C7.78201 11.0959 8.45601 9.60488 9.05201 7.32188ZM21.902 18.4689C21.7368 18.4688 21.5762 18.5232 21.4451 18.6237C21.314 18.7243 21.2197 18.8653 21.177 19.0249C20.937 19.9249 20.68 20.4459 20.314 20.8249C19.944 21.2089 19.388 21.5229 18.391 21.8509C18.241 21.9002 18.1103 21.9956 18.0177 22.1236C17.9251 22.2515 17.8752 22.4054 17.8752 22.5634C17.8752 22.7213 17.9251 22.8752 18.0177 23.0032C18.1103 23.1311 18.241 23.2266 18.391 23.2759C19.388 23.6029 19.944 23.9169 20.314 24.3009C20.68 24.6809 20.937 25.2009 21.177 26.1009C21.2194 26.2608 21.3134 26.4023 21.4446 26.5032C21.5757 26.6041 21.7365 26.6588 21.902 26.6588C22.0675 26.6588 22.2283 26.6041 22.3594 26.5032C22.4906 26.4023 22.5846 26.2608 22.627 26.1009C22.867 25.2009 23.123 24.6809 23.489 24.3009C23.859 23.9169 24.415 23.6029 25.412 23.2759C25.5621 23.2266 25.6927 23.1311 25.7853 23.0032C25.878 22.8752 25.9278 22.7213 25.9278 22.5634C25.9278 22.4054 25.878 22.2515 25.7853 22.1236C25.6927 21.9956 25.5621 21.9002 25.412 21.8509C24.415 21.5229 23.859 21.2089 23.489 20.8249C23.123 20.4459 22.867 19.9249 22.626 19.0249C22.5833 18.8655 22.4892 18.7246 22.3583 18.624C22.2274 18.5235 22.067 18.469 21.902 18.4689Z" fill="white"/>
<path d="M22.0049 17.9736C22.2433 17.9934 22.4722 18.0809 22.6631 18.2275C22.8812 18.3951 23.0382 18.6299 23.1094 18.8955C23.3416 19.7626 23.5689 20.1879 23.8486 20.4775C24.1351 20.7749 24.6005 21.0576 25.5684 21.376C25.8183 21.4582 26.0361 21.617 26.1904 21.8301C26.3448 22.0433 26.4277 22.3002 26.4277 22.5635C26.4277 22.8267 26.3448 23.0837 26.1904 23.2969C26.0361 23.5099 25.8183 23.6688 25.5684 23.751H25.5674C24.6006 24.0681 24.135 24.3494 23.8486 24.6465L23.8496 24.6475C23.5694 24.9384 23.3414 25.3633 23.1104 26.2295C23.0397 26.4959 22.8825 26.7313 22.6641 26.8994C22.4456 27.0675 22.1779 27.1591 21.9023 27.1592C21.6266 27.1592 21.3582 27.0676 21.1396 26.8994C20.9211 26.7312 20.764 26.4951 20.6934 26.2285V26.2275C20.4627 25.3632 20.2343 24.9384 19.9541 24.6475C19.6677 24.3503 19.2027 24.0683 18.2354 23.751C17.9853 23.6688 17.7667 23.51 17.6123 23.2969C17.458 23.0837 17.375 22.8267 17.375 22.5635C17.375 22.3002 17.4579 22.0433 17.6123 21.8301C17.7666 21.617 17.9845 21.4582 18.2344 21.376L18.5752 21.2578C19.3162 20.9865 19.7035 20.7376 19.9541 20.4775L20.0566 20.3623C20.2912 20.0749 20.4921 19.6546 20.6943 18.8965V18.8955C20.7656 18.6296 20.9222 18.3941 21.1406 18.2266C21.3591 18.059 21.627 17.9686 21.9023 17.9688L22.0049 17.9736ZM9.77734 6.26172C10.0537 6.26172 10.3223 6.35367 10.541 6.52246C10.7598 6.69129 10.9163 6.928 10.9863 7.19531H10.9873C11.574 9.44641 12.2217 10.8425 13.1973 11.8789C14.1764 12.9198 15.607 13.7253 18.0234 14.54L18.1143 14.5742C18.3242 14.6634 18.5067 14.8089 18.6406 14.9951C18.7934 15.2076 18.8749 15.4629 18.875 15.7246C18.875 15.9865 18.7935 16.2425 18.6406 16.4551C18.5068 16.6412 18.3241 16.7858 18.1143 16.875L18.0234 16.9102C15.6073 17.7238 14.1764 18.5294 13.1973 19.5703C12.2217 20.6066 11.574 22.0029 10.9873 24.2539L10.9863 24.2549C10.9162 24.5221 10.7597 24.759 10.541 24.9277C10.3223 25.0964 10.0536 25.1875 9.77734 25.1875C9.50109 25.1875 9.23239 25.0965 9.01367 24.9277C8.79496 24.759 8.63845 24.5221 8.56836 24.2549V24.2539C7.98062 22.0026 7.33388 20.6066 6.3584 19.5703C5.37808 18.5291 3.94743 17.7238 1.53027 16.9102V16.9092C1.28245 16.8258 1.0668 16.6673 0.914062 16.4551C0.76116 16.2425 0.678711 15.9865 0.678711 15.7246C0.678767 15.4628 0.761211 15.2077 0.914062 14.9951C1.06684 14.7827 1.28227 14.6234 1.53027 14.54C3.9479 13.7253 5.37828 12.9198 6.35742 11.8789H6.3584C7.33376 10.8426 7.98066 9.44652 8.56836 7.19531L8.59863 7.09668C8.67851 6.86996 8.82223 6.67023 9.01367 6.52246C9.2324 6.35367 9.50106 6.26176 9.77734 6.26172ZM20.3857 1.08301C20.662 1.08306 20.9307 1.17497 21.1494 1.34375C21.368 1.51256 21.5247 1.74941 21.5947 2.0166L21.7158 2.45215C22.0018 3.4129 22.309 3.98622 22.709 4.40918C23.1723 4.89882 23.8798 5.31601 25.21 5.7627C25.4582 5.84602 25.6743 6.00525 25.8271 6.21777C25.9801 6.4304 26.0625 6.68635 26.0625 6.94824C26.0624 7.21001 25.98 7.46521 25.8271 7.67773C25.6742 7.89034 25.4582 8.04946 25.21 8.13281C23.8804 8.57962 23.172 8.99723 22.71 9.48633C22.2525 9.97078 21.9174 10.6496 21.5947 11.8799V11.8809C21.5241 12.1475 21.367 12.3836 21.1484 12.5518C20.9299 12.7199 20.6615 12.8105 20.3857 12.8105C20.1102 12.8105 19.8424 12.7197 19.624 12.5518C19.4055 12.3836 19.2483 12.1475 19.1777 11.8809V11.8799C18.8552 10.6502 18.5191 9.97095 18.0615 9.48633C17.5994 8.99707 16.8912 8.57963 15.5605 8.13281C15.3125 8.04947 15.0972 7.89014 14.9443 7.67773C14.7915 7.46521 14.7091 7.21001 14.709 6.94824C14.709 6.68635 14.7914 6.4304 14.9443 6.21777C15.0972 6.00543 15.3125 5.84601 15.5605 5.7627C16.8911 5.31592 17.5993 4.89863 18.0615 4.41016L18.2275 4.21875C18.6026 3.74712 18.8954 3.0918 19.1768 2.01758V2.0166C19.2468 1.74929 19.4033 1.51258 19.6221 1.34375C19.8408 1.17492 20.1094 1.08301 20.3857 1.08301Z" stroke="black" stroke-opacity="0.07" stroke-linecap="round" stroke-linejoin="round"/>
</svg>
